<?xml version="1.0" encoding="utf-8"?>
<!-- Generator: Adobe Illustrator 23.0.2, SVG Export Plug-In . SVG Version: 6.00 Build 0)  -->
<svg version="1.1" id="Layer_1" xmlns="http://www.w3.org/2000/svg" xmlns:xlink="http://www.w3.org/1999/xlink" x="0px" y="0px"
	 viewBox="0 0 161.6 146" style="enable-background:new 0 0 161.6 146;" xml:space="preserve">
<style type="text/css">
	.st0{fill:url(#SVGID_1_);}
	.st1{fill:url(#SVGID_2_);}
	.st2{fill:url(#SVGID_3_);}
	.st3{fill:url(#SVGID_4_);}
	.st4{fill:url(#SVGID_5_);}
	.st5{fill:url(#SVGID_6_);}
	.st6{fill:url(#SVGID_7_);}
	.st7{fill:url(#SVGID_8_);}
	.st8{fill:url(#SVGID_9_);}
	.st9{fill:url(#SVGID_10_);}
	.st10{fill:url(#SVGID_11_);}
	.st11{fill:url(#SVGID_12_);}
	.st12{fill:url(#SVGID_13_);}
	.st13{fill:url(#SVGID_14_);}
	.st14{fill:url(#SVGID_15_);}
	.st15{fill:url(#SVGID_16_);}
</style>
<g id="Layer_1">
	<g>
		<g>
			<g>
				<g>
					<linearGradient id="SVGID_1_" gradientUnits="userSpaceOnUse" x1="0" y1="73.0187" x2="161.6191" y2="73.0187">
						<stop  offset="2.897209e-04" style="stop-color:#A91E22"/>
						<stop  offset="1" style="stop-color:#761619"/>
					</linearGradient>
					<path class="st0" d="M98,31.5l0.6-3.3c1.2-6.7,1.5-11.6,0.7-14.8c-0.7-3.2-2.3-5.8-4.8-7.8c-2.4-2-6.5-3.5-12.2-4.5
						c-4.9-0.9-10.3-1.3-16.2-1.1L65,16.1c3.2-0.4,5.7-0.5,7.3-0.2c1.9,0.3,3.1,1.2,3.6,2.6c0.3,0.9,0.3,2.6-0.2,5.2l-0.9,5.1
						C82.6,28.2,90.5,29.1,98,31.5z"/>
					<linearGradient id="SVGID_2_" gradientUnits="userSpaceOnUse" x1="0" y1="73.0187" x2="161.6191" y2="73.0187">
						<stop  offset="2.897209e-04" style="stop-color:#A91E22"/>
						<stop  offset="1" style="stop-color:#761619"/>
					</linearGradient>
					<path class="st1" d="M17.7,101.1c-6.4,2.3-10.8,4.5-13.2,6.7c-2.4,2.2-3.9,4.9-4.3,8s0.2,7.3,2.2,12.8c1.7,4.7,4,9.6,7.1,14.6
						l14.6-7c-2-2.6-3.2-4.7-3.8-6.3c-0.6-1.8-0.5-3.3,0.5-4.4c0.6-0.7,2.2-1.5,4.6-2.4l6.5-2.3c-4.6-6.6-7.6-13.9-9.2-21.5
						L17.7,101.1z"/>
					<linearGradient id="SVGID_3_" gradientUnits="userSpaceOnUse" x1="0" y1="73.0187" x2="161.6191" y2="73.0187">
						<stop  offset="2.897209e-04" style="stop-color:#A91E22"/>
						<stop  offset="1" style="stop-color:#761619"/>
					</linearGradient>
					<path class="st2" d="M152.5,134.7c3.3-3.8,6.3-8.2,9.1-13.4l-13.2-9.2c-1.3,3-2.5,5.1-3.6,6.4c-1.2,1.4-2.6,2-4.1,1.7
						c-1-0.2-2.4-1.1-4.4-2.8l-4-3.5c-2.5,4.9-5.7,9.6-9.7,13.8c-1.5,1.6-3.1,3.1-4.7,4.5l3.1,2.7c5.1,4.4,9.2,7.2,12.4,8.2
						c3.1,1,6.2,0.9,9.1-0.2C145.3,141.8,148.7,139,152.5,134.7z"/>
				</g>
				<g>
					<linearGradient id="SVGID_4_" gradientUnits="userSpaceOnUse" x1="0" y1="73.0187" x2="161.6191" y2="73.0187">
						<stop  offset="2.897209e-04" style="stop-color:#A91E22"/>
						<stop  offset="1" style="stop-color:#761619"/>
					</linearGradient>
					<path class="st3" d="M104.8,120.9l-5.6,6.5l-12.8-11.2l5.6-6.5l-8.4-7.3L89.8,77l17.4,15.1l8.4-9.7l12.8,11.2l-8.4,9.7
						l12.2,10.6c11.5-22.6,7.3-50.9-12-69.2c-6.6-6.2-14.3-10.7-22.4-13.3l-3.3,17.7l8.4,1.6l-3.1,16.7l-8.4-1.6l-2,11l-25.1,7.5
						l4.2-22.7l-12.6-2.3l3.1-16.7l12.6,2.3l3-16C61,30.1,47.6,36.2,37.4,47C23.7,61.5,18.8,81.2,22.6,99.3l15.3-5.4L35,85.9
						L51,80.2l2.9,8.1l10.5-3.7l19,18l-21.8,7.7l4.3,12.1L49.8,128l-4.3-12.1l-13.8,4.9c2.3,3.3,4.9,6.3,7.9,9.2
						c21.9,20.8,55.7,21.3,78.2,2.2L104.8,120.9z"/>
				</g>
			</g>
			<g>
				<g>
					<path d="M98,31.5l0.6-3.3c1.2-6.7,1.5-11.6,0.7-14.8c-0.7-3.2-2.3-5.8-4.8-7.8c-2.4-2-6.5-3.5-12.2-4.5
						c-4.9-0.9-10.3-1.3-16.2-1.1L65,16.1c3.2-0.4,5.7-0.5,7.3-0.2c1.9,0.3,3.1,1.2,3.6,2.6c0.3,0.9,0.3,2.6-0.2,5.2l-0.9,5.1
						C82.6,28.2,90.5,29.1,98,31.5z"/>
					<path d="M17.7,101.1c-6.4,2.3-10.8,4.5-13.2,6.7c-2.4,2.2-3.9,4.9-4.3,8s0.2,7.3,2.2,12.8c1.7,4.7,4,9.6,7.1,14.6l14.6-7
						c-2-2.6-3.2-4.7-3.8-6.3c-0.6-1.8-0.5-3.3,0.5-4.4c0.6-0.7,2.2-1.5,4.6-2.4l6.5-2.3c-4.6-6.6-7.6-13.9-9.2-21.5L17.7,101.1z"/>
					<path d="M152.5,134.7c3.3-3.8,6.3-8.2,9.1-13.4l-13.2-9.2c-1.3,3-2.5,5.1-3.6,6.4c-1.2,1.4-2.6,2-4.1,1.7
						c-1-0.2-2.4-1.1-4.4-2.8l-4-3.5c-2.5,4.9-5.7,9.6-9.7,13.8c-1.5,1.6-3.1,3.1-4.7,4.5l3.1,2.7c5.1,4.4,9.2,7.2,12.4,8.2
						c3.1,1,6.2,0.9,9.1-0.2C145.3,141.8,148.7,139,152.5,134.7z"/>
				</g>
				<g>
					<path d="M104.8,120.9l-5.6,6.5l-12.8-11.2l5.6-6.5l-8.4-7.3L89.8,77l17.4,15.1l8.4-9.7l12.8,11.2l-8.4,9.7l12.2,10.6
						c11.5-22.6,7.3-50.9-12-69.2c-6.6-6.2-14.3-10.7-22.4-13.3l-3.3,17.7l8.4,1.6l-3.1,16.7l-8.4-1.6l-2,11l-25.1,7.5l4.2-22.7
						l-12.6-2.3l3.1-16.7l12.6,2.3l3-16C61,30.1,47.6,36.2,37.4,47C23.7,61.5,18.8,81.2,22.6,99.3l15.3-5.4L35,85.9L51,80.2l2.9,8.1
						l10.5-3.7l19,18l-21.8,7.7l4.3,12.1L49.8,128l-4.3-12.1l-13.8,4.9c2.3,3.3,4.9,6.3,7.9,9.2c21.9,20.8,55.7,21.3,78.2,2.2
						L104.8,120.9z"/>
				</g>
			</g>
		</g>
	</g>
	<g>
		<g>
			<g>
				<g>
					<linearGradient id="SVGID_5_" gradientUnits="userSpaceOnUse" x1="81.1725" y1="0.2895" x2="80.7291" y2="145.9425">
						<stop  offset="2.897209e-04" style="stop-color:#A91E22"/>
						<stop  offset="1" style="stop-color:#761619"/>
					</linearGradient>
					<path class="st4" d="M98,31.5l0.6-3.3c1.2-6.7,1.5-11.6,0.7-14.8c-0.7-3.2-2.3-5.8-4.8-7.8c-2.4-2-6.5-3.5-12.2-4.5
						c-4.9-0.9-10.3-1.3-16.2-1.1L65,16.1c3.2-0.4,5.7-0.5,7.3-0.2c1.9,0.3,3.1,1.2,3.6,2.6c0.3,0.9,0.3,2.6-0.2,5.2l-0.9,5.1
						C82.6,28.2,90.5,29.1,98,31.5z"/>
					<linearGradient id="SVGID_6_" gradientUnits="userSpaceOnUse" x1="81.1725" y1="0.2895" x2="80.7291" y2="145.9425">
						<stop  offset="2.897209e-04" style="stop-color:#A91E22"/>
						<stop  offset="1" style="stop-color:#761619"/>
					</linearGradient>
					<path class="st5" d="M17.7,101.1c-6.4,2.3-10.8,4.5-13.2,6.7c-2.4,2.2-3.9,4.9-4.3,8s0.2,7.3,2.2,12.8c1.7,4.7,4,9.6,7.1,14.6
						l14.6-7c-2-2.6-3.2-4.7-3.8-6.3c-0.6-1.8-0.5-3.3,0.5-4.4c0.6-0.7,2.2-1.5,4.6-2.4l6.5-2.3c-4.6-6.6-7.6-13.9-9.2-21.5
						L17.7,101.1z"/>
					<linearGradient id="SVGID_7_" gradientUnits="userSpaceOnUse" x1="81.1725" y1="0.2895" x2="80.7291" y2="145.9425">
						<stop  offset="2.897209e-04" style="stop-color:#A91E22"/>
						<stop  offset="1" style="stop-color:#761619"/>
					</linearGradient>
					<path class="st6" d="M152.5,134.7c3.3-3.8,6.3-8.2,9.1-13.4l-13.2-9.2c-1.3,3-2.5,5.1-3.6,6.4c-1.2,1.4-2.6,2-4.1,1.7
						c-1-0.2-2.4-1.1-4.4-2.8l-4-3.5c-2.5,4.9-5.7,9.6-9.7,13.8c-1.5,1.6-3.1,3.1-4.7,4.5l3.1,2.7c5.1,4.4,9.2,7.2,12.4,8.2
						c3.1,1,6.2,0.9,9.1-0.2C145.3,141.8,148.7,139,152.5,134.7z"/>
				</g>
				<g>
					<linearGradient id="SVGID_8_" gradientUnits="userSpaceOnUse" x1="81.1725" y1="0.2895" x2="80.7291" y2="145.9425">
						<stop  offset="2.897209e-04" style="stop-color:#A91E22"/>
						<stop  offset="1" style="stop-color:#761619"/>
					</linearGradient>
					<path class="st7" d="M104.8,120.9l-5.6,6.5l-12.8-11.2l5.6-6.5l-8.4-7.3L89.8,77l17.4,15.1l8.4-9.7l12.8,11.2l-8.4,9.7
						l12.2,10.6c11.5-22.6,7.3-50.9-12-69.2c-6.6-6.2-14.3-10.7-22.4-13.3l-3.3,17.7l8.4,1.6l-3.1,16.7l-8.4-1.6l-2,11l-25.1,7.5
						l4.2-22.7l-12.6-2.3l3.1-16.7l12.6,2.3l3-16C61,30.1,47.6,36.2,37.4,47C23.7,61.5,18.8,81.2,22.6,99.3l15.3-5.4L35,85.9
						L51,80.2l2.9,8.1l10.5-3.7l19,18l-21.8,7.7l4.3,12.1L49.8,128l-4.3-12.1l-13.8,4.9c2.3,3.3,4.9,6.3,7.9,9.2
						c21.9,20.8,55.7,21.3,78.2,2.2L104.8,120.9z"/>
				</g>
			</g>
			<g>
				<g>
					<linearGradient id="SVGID_9_" gradientUnits="userSpaceOnUse" x1="81.1725" y1="0.2895" x2="80.7291" y2="145.9425">
						<stop  offset="2.897209e-04" style="stop-color:#A91E22"/>
						<stop  offset="1" style="stop-color:#761619"/>
					</linearGradient>
					<path class="st8" d="M98,31.5l0.6-3.3c1.2-6.7,1.5-11.6,0.7-14.8c-0.7-3.2-2.3-5.8-4.8-7.8c-2.4-2-6.5-3.5-12.2-4.5
						c-4.9-0.9-10.3-1.3-16.2-1.1L65,16.1c3.2-0.4,5.7-0.5,7.3-0.2c1.9,0.3,3.1,1.2,3.6,2.6c0.3,0.9,0.3,2.6-0.2,5.2l-0.9,5.1
						C82.6,28.2,90.5,29.1,98,31.5z"/>
					<linearGradient id="SVGID_10_" gradientUnits="userSpaceOnUse" x1="81.1725" y1="0.2895" x2="80.7291" y2="145.9425">
						<stop  offset="2.897209e-04" style="stop-color:#A91E22"/>
						<stop  offset="1" style="stop-color:#761619"/>
					</linearGradient>
					<path class="st9" d="M17.7,101.1c-6.4,2.3-10.8,4.5-13.2,6.7c-2.4,2.2-3.9,4.9-4.3,8s0.2,7.3,2.2,12.8c1.7,4.7,4,9.6,7.1,14.6
						l14.6-7c-2-2.6-3.2-4.7-3.8-6.3c-0.6-1.8-0.5-3.3,0.5-4.4c0.6-0.7,2.2-1.5,4.6-2.4l6.5-2.3c-4.6-6.6-7.6-13.9-9.2-21.5
						L17.7,101.1z"/>
					<linearGradient id="SVGID_11_" gradientUnits="userSpaceOnUse" x1="81.1725" y1="0.2895" x2="80.7291" y2="145.9425">
						<stop  offset="2.897209e-04" style="stop-color:#A91E22"/>
						<stop  offset="1" style="stop-color:#761619"/>
					</linearGradient>
					<path class="st10" d="M152.5,134.7c3.3-3.8,6.3-8.2,9.1-13.4l-13.2-9.2c-1.3,3-2.5,5.1-3.6,6.4c-1.2,1.4-2.6,2-4.1,1.7
						c-1-0.2-2.4-1.1-4.4-2.8l-4-3.5c-2.5,4.9-5.7,9.6-9.7,13.8c-1.5,1.6-3.1,3.1-4.7,4.5l3.1,2.7c5.1,4.4,9.2,7.2,12.4,8.2
						c3.1,1,6.2,0.9,9.1-0.2C145.3,141.8,148.7,139,152.5,134.7z"/>
				</g>
				<g>
					<linearGradient id="SVGID_12_" gradientUnits="userSpaceOnUse" x1="81.1725" y1="0.2895" x2="80.7291" y2="145.9425">
						<stop  offset="2.897209e-04" style="stop-color:#A91E22"/>
						<stop  offset="1" style="stop-color:#761619"/>
					</linearGradient>
					<path class="st11" d="M104.8,120.9l-5.6,6.5l-12.8-11.2l5.6-6.5l-8.4-7.3L89.8,77l17.4,15.1l8.4-9.7l12.8,11.2l-8.4,9.7
						l12.2,10.6c11.5-22.6,7.3-50.9-12-69.2c-6.6-6.2-14.3-10.7-22.4-13.3l-3.3,17.7l8.4,1.6l-3.1,16.7l-8.4-1.6l-2,11l-25.1,7.5
						l4.2-22.7l-12.6-2.3l3.1-16.7l12.6,2.3l3-16C61,30.1,47.6,36.2,37.4,47C23.7,61.5,18.8,81.2,22.6,99.3l15.3-5.4L35,85.9
						L51,80.2l2.9,8.1l10.5-3.7l19,18l-21.8,7.7l4.3,12.1L49.8,128l-4.3-12.1l-13.8,4.9c2.3,3.3,4.9,6.3,7.9,9.2
						c21.9,20.8,55.7,21.3,78.2,2.2L104.8,120.9z"/>
				</g>
			</g>
			<g>
				<g>
					<linearGradient id="SVGID_13_" gradientUnits="userSpaceOnUse" x1="81.1725" y1="0.2895" x2="80.7291" y2="145.9425">
						<stop  offset="2.897209e-04" style="stop-color:#A91E22"/>
						<stop  offset="1" style="stop-color:#761619"/>
					</linearGradient>
					<path class="st12" d="M98,31.5l0.6-3.3c1.2-6.7,1.5-11.6,0.7-14.8c-0.7-3.2-2.3-5.8-4.8-7.8c-2.4-2-6.5-3.5-12.2-4.5
						c-4.9-0.9-10.3-1.3-16.2-1.1L65,16.1c3.2-0.4,5.7-0.5,7.3-0.2c1.9,0.3,3.1,1.2,3.6,2.6c0.3,0.9,0.3,2.6-0.2,5.2l-0.9,5.1
						C82.6,28.2,90.5,29.1,98,31.5z"/>
					<linearGradient id="SVGID_14_" gradientUnits="userSpaceOnUse" x1="81.1725" y1="0.2895" x2="80.7291" y2="145.9425">
						<stop  offset="2.897209e-04" style="stop-color:#A91E22"/>
						<stop  offset="1" style="stop-color:#761619"/>
					</linearGradient>
					<path class="st13" d="M17.7,101.1c-6.4,2.3-10.8,4.5-13.2,6.7c-2.4,2.2-3.9,4.9-4.3,8s0.2,7.3,2.2,12.8c1.7,4.7,4,9.6,7.1,14.6
						l14.6-7c-2-2.6-3.2-4.7-3.8-6.3c-0.6-1.8-0.5-3.3,0.5-4.4c0.6-0.7,2.2-1.5,4.6-2.4l6.5-2.3c-4.6-6.6-7.6-13.9-9.2-21.5
						L17.7,101.1z"/>
					<linearGradient id="SVGID_15_" gradientUnits="userSpaceOnUse" x1="81.1725" y1="0.2895" x2="80.7291" y2="145.9425">
						<stop  offset="2.897209e-04" style="stop-color:#A91E22"/>
						<stop  offset="1" style="stop-color:#761619"/>
					</linearGradient>
					<path class="st14" d="M152.5,134.7c3.3-3.8,6.3-8.2,9.1-13.4l-13.2-9.2c-1.3,3-2.5,5.1-3.6,6.4c-1.2,1.4-2.6,2-4.1,1.7
						c-1-0.2-2.4-1.1-4.4-2.8l-4-3.5c-2.5,4.9-5.7,9.6-9.7,13.8c-1.5,1.6-3.1,3.1-4.7,4.5l3.1,2.7c5.1,4.4,9.2,7.2,12.4,8.2
						c3.1,1,6.2,0.9,9.1-0.2C145.3,141.8,148.7,139,152.5,134.7z"/>
				</g>
				<g>
					<linearGradient id="SVGID_16_" gradientUnits="userSpaceOnUse" x1="81.1725" y1="0.2895" x2="80.7291" y2="145.9425">
						<stop  offset="2.897209e-04" style="stop-color:#A91E22"/>
						<stop  offset="1" style="stop-color:#761619"/>
					</linearGradient>
					<path class="st15" d="M104.8,120.9l-5.6,6.5l-12.8-11.2l5.6-6.5l-8.4-7.3L89.8,77l17.4,15.1l8.4-9.7l12.8,11.2l-8.4,9.7
						l12.2,10.6c11.5-22.6,7.3-50.9-12-69.2c-6.6-6.2-14.3-10.7-22.4-13.3l-3.3,17.7l8.4,1.6l-3.1,16.7l-8.4-1.6l-2,11l-25.1,7.5
						l4.2-22.7l-12.6-2.3l3.1-16.7l12.6,2.3l3-16C61,30.1,47.6,36.2,37.4,47C23.7,61.5,18.8,81.2,22.6,99.3l15.3-5.4L35,85.9
						L51,80.2l2.9,8.1l10.5-3.7l19,18l-21.8,7.7l4.3,12.1L49.8,128l-4.3-12.1l-13.8,4.9c2.3,3.3,4.9,6.3,7.9,9.2
						c21.9,20.8,55.7,21.3,78.2,2.2L104.8,120.9z"/>
				</g>
			</g>
		</g>
	</g>
</g>
</svg>
